<?xml version="1.0" encoding="UTF-8"?>
<svg id="Layer_2" data-name="Layer 2" xmlns="http://www.w3.org/2000/svg" viewBox="0 0 1497.22 518.94">
  <g id="objects">
    <path d="M98.43,404.24c55.49,48.06,127.37,71.5,179.21,82.78,69.91,15.21,141.97,17.97,211.66,20.64,3,.13,5.46-2.48,5.56-5.79.05-1.58-.46-3.04-1.32-4.15,104.94,14.11,206.69,21.22,304.35,21.22h1.67c198.65-.17,379.93-29.97,538.81-88.59,37.12-13.7,75.75-29.89,106.79-55.42,34.17-28.1,53.13-64.54,52.01-99.96-1.18-37.37-24.51-76.21-63.99-106.54-34.99-26.89-78.09-44.6-119.44-59.73-84.76-31.02-173.55-55.67-263.91-73.28-51.87-10.11-104.47-17.93-157.3-23.42,158.05-.35,317.08,10.17,473.68,31.33,2.95.4,5.63-1.94,5.99-5.23.36-3.29-1.74-6.28-4.69-6.68C1189.12,7.32,1007.59-3,827.96.75c-24.31.51-48.59,1.27-72.86,2.3-83.68-2.21-167.35,1.5-249.04,11.07-77.44,9.07-153.58,23.46-226.86,42.85-68.67,13.02-143.87,31.43-201.08,72.66-31.22,22.5-55.41,53-68.1,85.87-14.01,36.27-13.31,72.62,2.02,105.1,15.18,32.17,45.64,61.58,86.4,83.64ZM279.7,475.24c-37.41-8.14-85.45-22.71-129.69-48.54,29.46,10.38,59.93,17.79,89.29,24.52,79.81,18.31,158.29,32.94,235.11,43.86-64.49-2.53-130.7-5.91-194.71-19.83ZM281.35,68.73c5.58-1.06,11.12-2.08,16.6-3.07,149.22-27.1,302.7-44.08,457.23-50.6,7.37.2,14.74.44,22.12.73,90.69,3.55,181.76,14.14,270.69,31.47,89.85,17.51,178.14,42.02,262.41,72.86,40.59,14.85,82.82,32.19,116.69,58.21,36.65,28.16,58.28,63.54,59.34,97.08.99,31.41-16.37,64.17-47.64,89.88-29.83,24.53-67.51,40.3-103.79,53.68-157.78,58.22-337.93,87.82-535.44,87.98h-1.66c-174.08,0-361.3-22.7-556.43-67.48-42.81-9.82-87.98-21.07-128.41-40.9-3.03-1.49-6-3.01-8.92-4.57-2.74-2.39-5.43-4.85-8.08-7.37-24.05-22.9-42.11-50.1-52.22-78.67-10.49-29.64-11.69-59.22-3.47-85.56,19.43-62.24,86.87-109.35,206.17-144,11.53-3.35,23.13-6.57,34.81-9.66ZM19.89,220.25c11.86-30.71,34.61-59.31,64.06-80.54,8.85-6.38,18.16-12.19,27.84-17.52-42.59,26.88-70.04,59.26-81.59,96.27-9.08,29.09-7.83,61.56,3.62,93.91,6.7,18.93,16.64,37.25,29.31,54.22-18.68-15.63-32.9-33.16-41.59-51.57-13.76-29.17-14.33-61.94-1.66-94.77Z"/>
  </g>
</svg>