<svg xmlns="http://www.w3.org/2000/svg" width="1617" height="516" viewBox="0 0 1617 516">
  <g id="Group_122" data-name="Group 122" transform="translate(-152 -481)">
    <g id="Group_2" data-name="Group 2" transform="translate(0 46)">
      <rect id="Rectangle_1" data-name="Rectangle 1" width="72" height="516" transform="translate(152 435)" fill="#548b4d"/>
      <rect id="Rectangle_2" data-name="Rectangle 2" width="72" height="516" transform="translate(243 435)" fill="#548b4d"/>
      <rect id="Rectangle_3" data-name="Rectangle 3" width="72" height="516" transform="translate(334 435)" fill="#548b4d"/>
      <rect id="Rectangle_4" data-name="Rectangle 4" width="72" height="516" transform="translate(425 435)" fill="#548b4d"/>
      <rect id="Rectangle_5" data-name="Rectangle 5" width="72" height="516" transform="translate(516 435)" fill="#548b4d"/>
      <rect id="Rectangle_6" data-name="Rectangle 6" width="72" height="516" transform="translate(607 435)" fill="#548b4d"/>
      <rect id="Rectangle_7" data-name="Rectangle 7" width="72" height="516" transform="translate(698 435)" fill="#548b4d"/>
      <rect id="Rectangle_8" data-name="Rectangle 8" width="72" height="516" transform="translate(789 435)" fill="#548b4d"/>
      <rect id="Rectangle_9" data-name="Rectangle 9" width="72" height="516" transform="translate(880 435)" fill="#548b4d"/>
      <rect id="Rectangle_10" data-name="Rectangle 10" width="72" height="516" transform="translate(971 435)" fill="#548b4d"/>
      <rect id="Rectangle_11" data-name="Rectangle 11" width="72" height="516" transform="translate(1062 435)" fill="#548b4d"/>
      <rect id="Rectangle_12" data-name="Rectangle 12" width="72" height="516" transform="translate(1153 435)" fill="#548b4d"/>
      <rect id="Rectangle_13" data-name="Rectangle 13" width="72" height="516" transform="translate(1241 435)" fill="#548b4d"/>
      <rect id="Rectangle_14" data-name="Rectangle 14" width="72" height="516" transform="translate(1333 435)" fill="#548b4d"/>
      <rect id="Rectangle_15" data-name="Rectangle 15" width="72" height="516" transform="translate(1424 435)" fill="#548b4d"/>
      <rect id="Rectangle_16" data-name="Rectangle 16" width="72" height="516" transform="translate(1515 435)" fill="#548b4d"/>
      <rect id="Rectangle_17" data-name="Rectangle 17" width="72" height="516" transform="translate(1606 435)" fill="#548b4d"/>
      <rect id="Rectangle_18" data-name="Rectangle 18" width="72" height="516" transform="translate(1697 435)" fill="#548b4d"/>
    </g>
    <g id="Group_3" data-name="Group 3" transform="translate(0 -6)">
      <rect id="Rectangle_22" data-name="Rectangle 22" width="1617" height="72" transform="translate(152 558)" fill="#672527"/>
      <rect id="Rectangle_24" data-name="Rectangle 24" width="1617" height="72" transform="translate(152 707)" fill="#672527"/>
      <rect id="Rectangle_25" data-name="Rectangle 25" width="1617" height="72" transform="translate(152 856)" fill="#672527"/>
    </g>
    <g id="Group_5" data-name="Group 5" transform="translate(2 -7)">
      <g id="Group_4" data-name="Group 4" transform="translate(-2)">
        <rect id="Rectangle_28" data-name="Rectangle 28" width="72" height="72" transform="translate(243 559)" fill="#c1e1dc"/>
        <rect id="Rectangle_29" data-name="Rectangle 29" width="72" height="72" transform="translate(334 559)" fill="#c1e1dc"/>
        <rect id="Rectangle_30" data-name="Rectangle 30" width="72" height="72" transform="translate(425 559)" fill="#c1e1dc"/>
        <rect id="Rectangle_31" data-name="Rectangle 31" width="72" height="72" transform="translate(516 559)" fill="#c1e1dc"/>
        <rect id="Rectangle_32" data-name="Rectangle 32" width="72" height="72" transform="translate(152 559)" fill="#c1e1dc"/>
        <rect id="Rectangle_33" data-name="Rectangle 33" width="72" height="72" transform="translate(607 559)" fill="#c1e1dc"/>
        <rect id="Rectangle_34" data-name="Rectangle 34" width="72" height="72" transform="translate(698 559)" fill="#c1e1dc"/>
        <rect id="Rectangle_35" data-name="Rectangle 35" width="72" height="72" transform="translate(789 559)" fill="#c1e1dc"/>
        <rect id="Rectangle_36" data-name="Rectangle 36" width="72" height="72" transform="translate(880 559)" fill="#c1e1dc"/>
        <rect id="Rectangle_37" data-name="Rectangle 37" width="72" height="72" transform="translate(152 708)" fill="#c1e1dc"/>
        <rect id="Rectangle_38" data-name="Rectangle 38" width="72" height="72" transform="translate(243 708)" fill="#c1e1dc"/>
        <rect id="Rectangle_39" data-name="Rectangle 39" width="72" height="72" transform="translate(334 708)" fill="#c1e1dc"/>
        <rect id="Rectangle_40" data-name="Rectangle 40" width="72" height="72" transform="translate(425 708)" fill="#c1e1dc"/>
        <rect id="Rectangle_41" data-name="Rectangle 41" width="72" height="72" transform="translate(516 708)" fill="#c1e1dc"/>
        <rect id="Rectangle_42" data-name="Rectangle 42" width="72" height="72" transform="translate(607 708)" fill="#c1e1dc"/>
        <rect id="Rectangle_43" data-name="Rectangle 43" width="72" height="72" transform="translate(698 708)" fill="#c1e1dc"/>
        <rect id="Rectangle_44" data-name="Rectangle 44" width="72" height="72" transform="translate(789 708)" fill="#c1e1dc"/>
        <rect id="Rectangle_45" data-name="Rectangle 45" width="72" height="72" transform="translate(880 708)" fill="#c1e1dc"/>
        <rect id="Rectangle_46" data-name="Rectangle 46" width="72" height="72" transform="translate(152 857)" fill="#c1e1dc"/>
        <rect id="Rectangle_47" data-name="Rectangle 47" width="72" height="72" transform="translate(243 857)" fill="#c1e1dc"/>
        <rect id="Rectangle_48" data-name="Rectangle 48" width="72" height="72" transform="translate(334 857)" fill="#c1e1dc"/>
        <rect id="Rectangle_49" data-name="Rectangle 49" width="72" height="72" transform="translate(425 857)" fill="#c1e1dc"/>
        <rect id="Rectangle_50" data-name="Rectangle 50" width="72" height="72" transform="translate(516 857)" fill="#c1e1dc"/>
        <rect id="Rectangle_51" data-name="Rectangle 51" width="72" height="72" transform="translate(607 857)" fill="#c1e1dc"/>
        <rect id="Rectangle_52" data-name="Rectangle 52" width="72" height="72" transform="translate(698 857)" fill="#c1e1dc"/>
        <rect id="Rectangle_53" data-name="Rectangle 53" width="72" height="72" transform="translate(789 857)" fill="#c1e1dc"/>
        <rect id="Rectangle_54" data-name="Rectangle 54" width="72" height="72" transform="translate(880 857)" fill="#c1e1dc"/>
        <rect id="Rectangle_55" data-name="Rectangle 55" width="72" height="72" transform="translate(1424 559)" fill="#c1e1dc"/>
        <rect id="Rectangle_56" data-name="Rectangle 56" width="72" height="72" transform="translate(1424 708)" fill="#c1e1dc"/>
        <rect id="Rectangle_57" data-name="Rectangle 57" width="72" height="72" transform="translate(1424 857)" fill="#c1e1dc"/>
        <rect id="Rectangle_58" data-name="Rectangle 58" width="72" height="72" transform="translate(1515 559)" fill="#c1e1dc"/>
        <rect id="Rectangle_59" data-name="Rectangle 59" width="72" height="72" transform="translate(1515 708)" fill="#c1e1dc"/>
        <rect id="Rectangle_60" data-name="Rectangle 60" width="72" height="72" transform="translate(1515 857)" fill="#c1e1dc"/>
        <rect id="Rectangle_61" data-name="Rectangle 61" width="72" height="72" transform="translate(1606 559)" fill="#c1e1dc"/>
        <rect id="Rectangle_62" data-name="Rectangle 62" width="72" height="72" transform="translate(1606 708)" fill="#c1e1dc"/>
        <rect id="Rectangle_63" data-name="Rectangle 63" width="72" height="72" transform="translate(1606 857)" fill="#c1e1dc"/>
        <rect id="Rectangle_64" data-name="Rectangle 64" width="72" height="72" transform="translate(1697 559)" fill="#c1e1dc"/>
      </g>
      <rect id="Rectangle_65" data-name="Rectangle 65" width="72" height="72" transform="translate(1695 708)" fill="#c1e1dc"/>
      <rect id="Rectangle_66" data-name="Rectangle 66" width="72" height="72" transform="translate(1695 857)" fill="#c1e1dc"/>
      <rect id="Rectangle_67" data-name="Rectangle 67" width="72" height="72" transform="translate(969 559)" fill="#c1e1dc"/>
      <rect id="Rectangle_68" data-name="Rectangle 68" width="72" height="72" transform="translate(1060 559)" fill="#c1e1dc"/>
      <rect id="Rectangle_69" data-name="Rectangle 69" width="72" height="72" transform="translate(1151 559)" fill="#c1e1dc"/>
      <rect id="Rectangle_70" data-name="Rectangle 70" width="72" height="72" transform="translate(1239 559)" fill="#c1e1dc"/>
      <rect id="Rectangle_71" data-name="Rectangle 71" width="72" height="72" transform="translate(1331 559)" fill="#c1e1dc"/>
      <rect id="Rectangle_72" data-name="Rectangle 72" width="72" height="72" transform="translate(969 708)" fill="#c1e1dc"/>
      <rect id="Rectangle_73" data-name="Rectangle 73" width="72" height="72" transform="translate(1060 708)" fill="#c1e1dc"/>
      <rect id="Rectangle_74" data-name="Rectangle 74" width="72" height="72" transform="translate(1151 708)" fill="#c1e1dc"/>
      <rect id="Rectangle_75" data-name="Rectangle 75" width="72" height="72" transform="translate(1239 708)" fill="#c1e1dc"/>
      <rect id="Rectangle_76" data-name="Rectangle 76" width="72" height="72" transform="translate(1331 708)" fill="#c1e1dc"/>
      <rect id="Rectangle_77" data-name="Rectangle 77" width="72" height="72" transform="translate(969 857)" fill="#c1e1dc"/>
      <rect id="Rectangle_78" data-name="Rectangle 78" width="72" height="72" transform="translate(1060 857)" fill="#c1e1dc"/>
      <rect id="Rectangle_79" data-name="Rectangle 79" width="72" height="72" transform="translate(1151 857)" fill="#c1e1dc"/>
      <rect id="Rectangle_80" data-name="Rectangle 80" width="72" height="72" transform="translate(1239 857)" fill="#c1e1dc"/>
      <rect id="Rectangle_81" data-name="Rectangle 81" width="72" height="72" transform="translate(1331 857)" fill="#c1e1dc"/>
    </g>
  </g>
</svg>
