<?xml version="1.0" encoding="UTF-8"?>
<svg id="Layer_2" data-name="Layer 2" xmlns="http://www.w3.org/2000/svg" viewBox="0 0 34.79 146.43">
  <defs>
    <style>
      .cls-1 {
        fill: #1f1f1f;
      }
    </style>
  </defs>
  <g id="Layer_1-2" data-name="Layer 1">
    <path class="cls-1" d="M15.24,146.43c-3.94,0-7.97-1.67-10.77-4.47C1.55,139.04,0,134.98,0,130.21v-8.81C0,92.69,0,34.42,0,17.01,0,5.84,8.75,0,17.39,0h0c4.85,0,9.66,1.91,12.86,5.11,2.96,2.96,4.53,6.97,4.53,11.59v98.45s-2.99,0-2.99,0V16.7c0-3.86-1.23-7.04-3.66-9.47-2.65-2.65-6.67-4.24-10.74-4.24h0c-6.93,0-14.38,4.39-14.39,14.01,0,17.41,0,75.68,0,104.4v8.81c0,4.01,1.21,7.25,3.59,9.63,2.65,2.65,6.2,3.59,8.65,3.59h.01c1.13,0,5.08-.2,8.48-2.71,3.15-2.33,4.75-5.86,4.74-10.5,0-15.69,0-67.15,0-85.98,0-3.52-1.24-6.44-3.6-8.44-1.93-1.64-4.62-2.61-7.18-2.61h0c-2.2,0-5.4.84-7.76,3.2-1.98,1.98-2.99,4.62-2.99,7.85,0,16.95,0,70.29,0,70.29h-3s0-53.34,0-70.29c0-3.99,1.33-7.44,3.87-9.97,2.55-2.55,6.25-4.08,9.88-4.08h0c3.3,0,6.63,1.21,9.12,3.32,2.13,1.8,4.67,5.13,4.66,10.73,0,18.83,0,70.29,0,85.98,0,7.03-3.24,10.91-5.96,12.92-2.79,2.07-6.63,3.3-10.26,3.3h-.02Z"/>
  </g>
</svg>