<?xml version="1.0" encoding="UTF-8"?>
<svg id="Layer_2" data-name="Layer 2" xmlns="http://www.w3.org/2000/svg" viewBox="0 0 383.59 383.59">
  <g id="Layer_1-2" data-name="Layer 1">
    <g>
      <path d="M294.18,383.59H89.08c-48.43-5.61-83.53-40.65-89.08-89.08V89.41C0,43.18,44.73,2.43,89.74,1.28c68.98-1.77,134.96-1.62,203.52-.05,46.63,1.06,88.03,42.4,89.1,89.19,1.56,67.97,1.7,135.31-.03,202.83-1.25,48.91-41.91,85.35-88.16,90.35ZM286.33,357.09c38.84-.01,70.39-31.68,70.39-70.16V97.02c0-39.03-32.05-70.23-70.86-70.23H97.46c-39.81,0-71.1,32.12-71.1,71.74v186.87c0,39.59,31.29,71.75,71.11,71.74l188.87-.05Z"/>
      <path d="M288.71,191.95c0,53.62-43.47,97.09-97.09,97.09s-97.09-43.47-97.09-97.09,43.47-97.09,97.09-97.09,97.09,43.47,97.09,97.09ZM262.25,191.97c0-39.01-31.63-70.64-70.64-70.64s-70.64,31.63-70.64,70.64,31.63,70.64,70.64,70.64,70.64-31.63,70.64-70.64Z"/>
      <path d="M335.34,83.26c0,19.33-15.67,35-35,35s-35-15.67-35-35,15.67-35,35-35,35,15.67,35,35ZM308.86,83.26c0-4.71-3.82-8.53-8.53-8.53s-8.53,3.82-8.53,8.53,3.82,8.53,8.53,8.53,8.53-3.82,8.53-8.53Z"/>
    </g>
  </g>
</svg>