<?xml version="1.0" encoding="UTF-8"?>
<svg id="Layer_2" data-name="Layer 2" xmlns="http://www.w3.org/2000/svg" viewBox="0 0 214.06 216.51">
  <defs>
    <style>
      .cls-1 {
        fill: #672527;
      }
    </style>
  </defs>
  <g id="Layer_1-2" data-name="Layer 1">
    <g>
      <path class="cls-1" d="M164.06,2.54c-27.61,0-50,22.39-50,50s22.39,50,50,50,50-22.39,50-50S191.68,2.54,164.06,2.54ZM194.58,73.21h-22.38v-2.08l2.48-.4c2.41-.4,3.01-.67,3.55-1.34l-.87-35.11-15.48,38.19h-2.41l-16.08-37.05v16.15c0,6.83.2,14.87.54,16.68,1.14,1.27,2.35,2.14,4.82,2.61l1.54.27v2.08h-16.28v-2.08l.6-.13c4.69-.87,4.76-1.94,5.09-19.16l.4-19.76c-2.08-1.34-4.49-2.21-6.57-2.75v-2.08h9.11l9.71-.47,12.66,29.41,11.72-28.94h17.75v2.08l-2.68.54c-1.61.2-2.21.47-2.68.94l.94,38.79c.4.6,1.07.87,2.28,1.07l2.21.47v2.08Z"/>
      <path class="cls-1" d="M50,116.51c-27.61,0-50,22.39-50,50s22.39,50,50,50,50-22.39,50-50-22.39-50-50-50ZM47.36,189.73c-3.74,0-7.03-.97-9.61-2.51l-1.35,2.45h-2.13c.52-3.09.84-7.29.84-10.19v-4.32h2.06l.45,1.42c2.51,8.71,7.42,10.45,10.7,10.45,5.22,0,7.67-3.74,7.67-7.29,0-3.03-1.1-4.64-6.64-7.61l-4.19-2.26c-6.83-3.68-9.48-6.58-9.48-12.25,0-8.64,7.41-14.32,15.28-14.32,4.45,0,8.45,1.23,10.32,2.32l1.29-2.32h1.93c-.64,4-.84,6.19-.84,9.29v3.55h-2l-.58-1.55c-2.71-7.42-6-8.58-10.19-8.58-3.29,0-6.77,2.19-6.77,6.51,0,2.84,1.42,4.32,5.93,6.77l6.13,3.29c6.77,3.61,9.54,6.9,9.54,12.51,0,8.25-6.58,14.64-18.38,14.64Z"/>
      <path class="cls-1" d="M164.06,116.51c-27.61,0-50,22.39-50,50s22.39,50,50,50,50-22.39,50-50-22.39-50-50-50ZM180.04,169.92c-1.73,0-3.34-.12-5.19-.35-2.77-.35-6-.81-7.27-.81-.23,0-.69,0-1.15.11,2.08,1.85,4.62,3.35,7.04,4.73,4.61,2.54,8.54,5.19,8.54,9.69,0,2.88-2.65,6.34-6.46,6.34-5.31,0-7.26-5.54-8.54-10.61-.81-3.35-1.61-6.46-3-8.3-1.38,2.19-2.31,5.65-2.88,8.07-1.38,6.69-3.58,10.73-8.54,10.73-3.92,0-6.34-3.35-6.34-6.23,0-3.81,2.77-6.11,6.46-8.3,3.35-1.96,6.69-3.81,8.88-6-.69-.12-1.5-.12-2.19-.12-1.5,0-3,.12-5.54.46-2.65.46-4.38.58-6.69.58-3.69-.12-7.27-2.42-7.27-6.57s3.46-6.57,6.69-6.57c3,0,6.46,2.31,9.46,4.73,2.08,1.62,4.38,3.92,6.69,4.61-.23-2.19-1.39-4.38-2.31-6.81-1.27-3.23-2.65-6.34-2.65-9.11,0-3.58,2.42-6.81,6.46-6.81s6.46,3.23,6.46,6.81c0,2.42-1.39,5.88-2.65,9.11-1.04,2.42-2.19,5.19-2.31,6.92,2.31-1.04,5.08-3.35,7.38-5.31,2.88-2.42,5.54-4.15,8.77-4.15s6.34,2.54,6.34,6.69c0,3.58-3,6.46-8.19,6.46Z"/>
      <path class="cls-1" d="M50,0C22.39,0,0,22.39,0,50s22.39,50,50,50,50-22.39,50-50S77.61,0,50,0ZM64.64,26.63l-2.2.44c-1.07.19-1.69.38-2.14,1v21.16c0,2.24-.02,5.76-.07,8.91h0v.02c-.03,1.91-.08,3.67-.14,4.95v.02c0,4.45-1.3,7.75-3.35,9.62-.4.36-.88.67-1.39.94-.01.01-.03.03-.04.04h-.05c-1.92.99-4.6,1.38-7.98,1.45l-.1.02s0-.01,0-.02c-.34,0-.68.02-1.04.02-2.35,0-4.44-.24-6.28-.72-1.84-.48-3.34-1.07-4.52-1.78v-13.2h4.7l1.98,8.88c.19.1.59.22,1.17.34.59.13,1.2.19,1.84.19,1.81,0,2.97-.39,3.49-1.18.38-.58.57-1.41.64-2.45.02-.47.03-.98.04-1.48l.03-5.66v-30.07c-.44-.63-1-.75-2.13-1l-2.32-.44v-1.95h19.84v1.95Z"/>
    </g>
  </g>
</svg>