<?xml version="1.0" encoding="UTF-8"?>
<svg id="Layer_2" data-name="Layer 2" xmlns="http://www.w3.org/2000/svg" viewBox="0 0 510.45 510.45">
  <g id="Layer_1-2" data-name="Layer 1">
    <g>
      <path d="M459.1,510.45H51.9c-27.25-5.16-46.79-24.63-51.9-51.9V51.35C0,26.43,29.06.13,53.02.12L457.02,0c26.52,0,53.44,26.82,53.43,53.51l-.12,403.52c0,28.56-26.26,48.26-51.22,53.42ZM451.44,470.5c11.48,0,19.63-9.47,19.63-20.09V59.49c0-11.31-8.8-20.12-20.12-20.12H60.05c-11.33,0-20.12,8.8-20.12,20.12v390.91c0,11.31,8.81,20.12,20.13,20.11l391.39-.02Z"/>
      <path d="M323.61,252.6c-19.74-3.05-38.73,3.12-46.72,22.96-3.78,9.38-4.87,18.93-5.42,29.4v116.67s-67.87,0-67.87,0v-225.56s67.82,0,67.82,0l.18,30.12c20.69-34.64,65.07-39.89,100.71-29.28,19.98,5.95,34.03,20.71,40.91,40.13,5.62,15.88,6.93,31.72,7.92,48.98l.07,135.63h-68.89s-.02-119.66-.02-119.66c-.69-20.52-4.51-45.64-28.69-49.37Z"/>
      <rect x="89.82" y="196.07" width="69.86" height="225.56"/>
      <circle cx="125.75" cy="124.2" r="40.89"/>
    </g>
  </g>
</svg>