<?xml version="1.0" encoding="UTF-8"?>
<svg id="Layer_2" data-name="Layer 2" xmlns="http://www.w3.org/2000/svg" viewBox="0 0 409.6 305">
  <g id="Layer_1-2" data-name="Layer 1">
    <path d="M409.6,30.34v243.52c-2.71,16.9-16.02,31.14-34.54,31.14H34.54c-18.51,0-31.82-14.24-34.54-31.14V30.34C0,13.69,18.95,0,34.34,0h340.76c18.15,0,31.24,13.68,34.5,30.34ZM357.95,29.82H51.65s153.15,149.72,153.15,149.72L357.95,29.82ZM379.64,269.64l-.02-219.14-164.43,160.8c-6.24,5.55-14.55,5.55-20.79,0L29.98,50.5v219.54c-.01,3.25,2.53,4.98,5.55,5.13h338.55c3.09-.22,5.57-1.69,5.57-5.53Z"/>
  </g>
</svg>